<svg id="Layer_1" data-name="Layer 1" xmlns="http://www.w3.org/2000/svg" xmlns:xlink="http://www.w3.org/1999/xlink" viewBox="0 0 62.96 63.42"><defs><linearGradient id="linear-gradient" x1="17.51" y1="51.9" x2="39.79" y2="13.31" gradientUnits="userSpaceOnUse"><stop offset="0" stop-color="#27aae1"/><stop offset="0.61" stop-color="#39b54a"/><stop offset="1" stop-color="#f7941d"/></linearGradient></defs><title>logo-final</title><ellipse cx="33.09" cy="31.71" rx="26.37" ry="28.21" style="fill:#fff;stroke:#be1e2d;stroke-miterlimit:10;stroke-width:7px"/><path d="M58.67,31.73C58,43.39,53.08,51.61,44.91,57.66l-1.06-2.54-1.38-3-.78-2.33s-.1-.9-.27-2.58-.61-1.77-.61-1.77l-1-.85-.94-1.37-2,1-6.84,2.56-1.1.78-3.89,2.56s-3.53,1.77-4.35,2.07a5.33,5.33,0,0,1-2.89-.13c-.74-.23-1.29-1.38-1.46-2.1s.61-1.39.61-1.39a15.58,15.58,0,0,0,3.49-1.21c1.57-.86,3.47-3.74,3.47-3.74a27,27,0,0,0,1.76-2.8c-.06-.19,2.19-2.2,2.32-2.43a12.39,12.39,0,0,1,2.07-1.45c.31-.16,2.86-1.38,3.26-1.48s.85-1,.85-1l-.29-.12s-2.49-.71-2.76-.69-1.92-.06-1.92-.06l-1.95.27-1.61.6-3.05,1.67-1.84.37-1.32-.09-2.84-.92-6.19-1.86-1.78-.26-1.11.09-.63.44L6.37,34l-.5-.52-1.4-.84L2.12,31.31l-1-.86-.15-.63L.75,27.38l.07-3.94.33-2,.6-1.37L3.3,18.47,4.67,16.9l2.62-2,2.33.74,4.16,1.48,2.48.44,4.36-.35,2.52-.44,2.37-.47.84-.84.49-1.3.62-.63,1.08-.25,4-.18a8.64,8.64,0,0,1,4.3.5,4.5,4.5,0,0,1,1.12.73l.68.43.87-.78.86-.22,1.1.47,1.28,1.6,1.74,1.92,1.82,1.62,3.93,3.25L55,27.32l3.13,3.76Z" transform="translate(-0.31 -0.17)" style="fill:url(#linear-gradient)"/><path d="M29,37.6a5,5,0,0,1-1.34-.75,4.9,4.9,0,0,0-.61-.62h-.41l-.11.58.09,1.24L27,39l1-.43.92-.82Z" transform="translate(-0.31 -0.17)" style="fill:#fff"/><polygon points="26.29 39.42 24.24 38.83 23.83 39.53 24.04 40.92 24.28 42.46 25.49 40.83 26.29 39.42" style="fill:#fff"/><polygon points="23.99 42.94 21.95 42.25 21.58 42.46 21.58 43.42 21.88 44.87 22.29 45.41 23.99 42.94" style="fill:#fff"/><path d="M22.16,45.86c-.07,0-1.2-.4-1.2-.4l-.61-.28-.17.84.13,1.23L21,47Z" transform="translate(-0.31 -0.17)" style="fill:#fff"/><polygon points="19.61 47.54 17.8 45.96 17.1 47.64 17.15 48.4 19.61 47.54" style="fill:#fff"/><path d="M29.29,33.55s-.41,1.69-.42,1.79-.47-.08-.47-.08l-1.22-1.14.16-.3Z" transform="translate(-0.31 -0.17)" style="fill:#fff"/><polygon points="25.26 34.51 24.85 35.87 24.85 37.14 24.77 37.41 23.74 36.81 22.62 35.87 23.94 35.11 25.26 34.51" style="fill:#fff"/><polygon points="21.82 36.3 20.83 38.57 20.49 38.97 19.46 38.26 18.46 36.06 18.97 36.11 20.36 36.3 21.82 36.3" style="fill:#fff"/><polygon points="17.99 35.89 17.12 36.82 17 37.76 16.65 37.94 15.69 37.12 15.48 35.89 15.53 35.09 17.99 35.89" style="fill:#fff"/><polygon points="15.23 35.09 14.21 35.64 13.82 35.96 13.32 36.89 12.89 36.77 12.55 34.7 12.3 34.04 15.23 35.09" style="fill:#fff"/><polygon points="11.7 33.97 10.96 34.55 10.57 35.22 10.28 35.74 9.82 34.97 9.39 33.35 11.7 33.97" style="fill:#fff"/><polygon points="8.98 33.26 8.47 34.42 7.97 35.89 7.75 36.21 6.93 34.42 6.66 33.69 7.29 33.26 8.98 33.26" style="fill:#fff"/><path d="M30,32.25a9.46,9.46,0,0,0-.52,2.09c.05.49.11,2.47.11,2.47l.07.38,2.76-1.41-.51-.4-1-1-.59-2.1S30.15,32,30,32.25Z" transform="translate(-0.31 -0.17)" style="fill:#fff"/><path d="M15.54,11" transform="translate(-0.31 -0.17)" style="fill:#231f20;stroke:#fff;stroke-miterlimit:10"/><path d="M34.26,34.42a14.07,14.07,0,0,0-3.71-.87" transform="translate(-0.31 -0.17)" style="fill:none;stroke:#231f20;stroke-miterlimit:10"/><path d="M29.63,33.52v0c.14-.84.36-1.43.51-1.43s.16.61.37,1.35a.65.65,0,0,0,0,.13" transform="translate(-0.31 -0.17)" style="fill:none;stroke:#231f20;stroke-miterlimit:10"/><path d="M29.63,33.52a8.64,8.64,0,0,0-2.81.45c-2.4.8-3.11,2.17-5.59,2.47-1.16.14-2.57-.31-5.39-1.23-2.36-.76-7.51-2.61-8.58-1.6-.08.08-.46.47-.82.38-.2-.05-.26-.22-.5-.46s-.48-.34-1.17-.73c-.3-.17-.28-.17-1.06-.66-2.09-1.33-2.11-1.21-2.35-1.46s-.54-.9-.55-3.91c0-4.67.37-5.56.62-6l.07-.14a9,9,0,0,1,1.72-2,12.64,12.64,0,0,1,3-3c.4-.29.79-.53,1.16-.75,1.75.64,3.24,1.16,4.41,1.55a17.1,17.1,0,0,0,4,1.06,16.11,16.11,0,0,0,3.35-.06c1.21-.13,1.16-.24,3.28-.6,2.48-.42,2.95-.22,3.59-.79.88-.81.45-1.56,1.3-2.32.69-.64,1.31-.41,4.14-.53,2.67-.12,2.77-.34,3.78-.13a7.54,7.54,0,0,1,3.34,1.72l.09.07c.72.6,2,2,3.5,5.69" transform="translate(-0.31 -0.17)" style="fill:none;stroke:#231f20;stroke-miterlimit:10"/><path d="M38.56,14.79a2.45,2.45,0,0,1,1.86-1c.58,0,1.09.35,1.79,1.26A24.08,24.08,0,0,0,45.8,19c.55.5.88.72,1.49,1.19a71.77,71.77,0,0,1,5.82,5.17,65.27,65.27,0,0,1,5.76,6.61" transform="translate(-0.31 -0.17)" style="fill:none;stroke:#231f20;stroke-miterlimit:10"/><path d="M34.73,31.74a4.37,4.37,0,0,1-1.06,3.44,3.08,3.08,0,0,1-1.11.53A19.49,19.49,0,0,0,28.41,38a12.65,12.65,0,0,0-2,1.92c-1.33,1.53-1.27,2.06-2.72,4a11.71,11.71,0,0,1-2.66,2.91,7,7,0,0,1-2.67,1.39c-.81.18-1.31.09-1.67.53a2.07,2.07,0,0,0-.06,2,2.76,2.76,0,0,0,1.55,1.26,4,4,0,0,0,1.36.33,5.36,5.36,0,0,0,2.79-.93c2.51-1.31,1.92-.88,3-1.52,2.2-1.28,2.45-1.79,4-2.72a26.92,26.92,0,0,1,4.15-1.72c4.07-1.59,6.13-2.4,7.43-3.64A8.2,8.2,0,0,0,43.76,37c.14-1.2-.14-1.87-.56-4.31-.35-2.1-.53-3.81-.61-4.9" transform="translate(-0.31 -0.17)" style="fill:none;stroke:#231f20;stroke-miterlimit:10"/><path d="M48.53,43.26" transform="translate(-0.31 -0.17)" style="fill:none;stroke:#231f20;stroke-miterlimit:10"/><path d="M38.92,43.25A8.94,8.94,0,0,0,40.3,45c.48.47.64.51.86.86.39.63.25,1.11.37,2.45a12.62,12.62,0,0,0,.41,2.3,14.81,14.81,0,0,0,.92,2.24c.43.94,1.89,4.36,2.14,4.93" transform="translate(-0.31 -0.17)" style="fill:none;stroke:#231f20;stroke-miterlimit:10"/><path d="M34.46,19.21c.39.47.78.9,1.15,1.3a11,11,0,0,0-1.42,2.72,10,10,0,0,0-.35,1.11,2.72,2.72,0,0,0-.54-.28c-.34-.14-.61-.17-2.1-.07a9.08,9.08,0,0,0-2.35.33A4.86,4.86,0,0,1,28,22.88a3,3,0,0,1-.33-2.23c.17-.37.43-.44,3.37-1.49a6.21,6.21,0,0,0,1.82-1,4.61,4.61,0,0,0,.49-.44C33.67,18.21,34,18.7,34.46,19.21Z" transform="translate(-0.31 -0.17)" style="fill:#fff"/><path d="M33.32,17.73a4.61,4.61,0,0,1-.49.44,6.21,6.21,0,0,1-1.82,1c-2.94,1.05-3.2,1.12-3.37,1.49A3,3,0,0,0,28,22.88a4.86,4.86,0,0,0,.88,1.44A9.08,9.08,0,0,1,31.2,24c1.49-.1,1.76-.07,2.1.07a2.72,2.72,0,0,1,.54.28,10,10,0,0,1,.35-1.11,11,11,0,0,1,1.42-2.72c-.37-.4-.76-.83-1.15-1.3S33.67,18.21,33.32,17.73Z" transform="translate(-0.31 -0.17)" style="fill:none;stroke:#231f20;stroke-miterlimit:10"/><path d="M34.29,16.18a4.75,4.75,0,0,1-1,1.55" transform="translate(-0.31 -0.17)" style="fill:none;stroke:#231f20;stroke-miterlimit:10"/><path d="M37.32,23.59" transform="translate(-0.31 -0.17)" style="fill:none;stroke:#231f20;stroke-miterlimit:10"/><polygon points="29.81 20.05 29.47 20.78 30.09 22.4 30.84 22.9 31.04 21.77 30.58 20.78 29.81 20.05" style="fill:#231f20;stroke:#231f20;stroke-miterlimit:10"/><polygon points="6.13 21.44 7.93 21.44 6.75 23.16 5.51 23.56 6.13 21.44" style="fill:#231f20;stroke:#231f20;stroke-miterlimit:10"/><path d="M6.56,34.59" transform="translate(-0.31 -0.17)" style="fill:none;stroke:#231f20;stroke-miterlimit:10"/><path d="M15.75,35.27a4.05,4.05,0,0,0,0,.89v.28c0,.75.87,1.87,1.24,1.72s.07-.64.5-1.32c.21-.34.67-.88,1-.78s.29.7.77,1.57c.36.66,1.07,1.54,1.53,1.39.28-.09.24-.48.68-1.46.37-.81.62-1.3,1-1.42.92-.3,2,1.67,2.49,1.39.3-.18-.16-1,.23-2.08,0-.08.5-1.29,1.29-1.39,1-.12,1.82,1.58,2.22,1.32.15-.1.07-.34.25-.93a4.29,4.29,0,0,1,.42-.92" transform="translate(-0.31 -0.17)" style="fill:none;stroke:#231f20;stroke-miterlimit:10"/><path d="M15.75,35.27c.09,0,.13-.05.09-.06A.1.1,0,0,0,15.75,35.27Z" transform="translate(-0.31 -0.17)" style="fill:none;stroke:#231f20;stroke-miterlimit:10"/><path d="M7,33.86C7.72,36,8,36.41,8.17,36.37s.09-.55.37-1.39c.2-.58.65-1.6,1-1.56.52.08.57,2.42.92,2.42.16,0,.19-.37.56-.86.26-.34.89-1,1.33-.88.78.22.59,2.93,1.08,3,.28,0,.31-.8,1.12-1.34a6.74,6.74,0,0,1,1.2-.47" transform="translate(-0.31 -0.17)" style="fill:none;stroke:#231f20;stroke-miterlimit:10"/><path d="M30.55,33.55a3.42,3.42,0,0,0,.71,1.3,3.15,3.15,0,0,0,1.3.86" transform="translate(-0.31 -0.17)" style="fill:none;stroke:#231f20;stroke-miterlimit:10"/><path d="M17.3,48.48c.32-1.95.59-2.37.78-2.37s.26.29.74.73c.12.1,1,.9,1.32.68s-.24-2.13.16-2.34c.14-.07.27.13.75.33s1.18.4,1.39.12S22.19,45,22,44.06c0-.12-.31-1.43.07-1.66s.55.34,1.42.53c.39.08.81.17,1,0s-.19-1-.27-2.27c0-.36-.09-1.47.31-1.66s.53.37,1.27.52c.43.09,1.16.08,1.33-.27s-.46-.8-.62-1.9c-.06-.46-.06-1.17.19-1.26s.56.67,1.5,1.14c.32.16.85.42,1.16.2s.14-1.06.16-2.38a8.4,8.4,0,0,1,.13-1.48" transform="translate(-0.31 -0.17)" style="fill:none;stroke:#231f20;stroke-miterlimit:10"/><path d="M6.84,14.74" transform="translate(-0.31 -0.17)" style="fill:none;stroke:#231f20;stroke-miterlimit:10"/><path d="M29.29,34.34" transform="translate(-0.31 -0.17)" style="fill:none;stroke:#231f20;stroke-miterlimit:10"/><path d="M40.82,30" transform="translate(-0.31 -0.17)" style="fill:none;stroke:#231f20;stroke-miterlimit:10"/><path d="M48,54.42" transform="translate(-0.31 -0.17)" style="fill:none;stroke:#231f20;stroke-miterlimit:10"/><path d="M30.14,29" transform="translate(-0.31 -0.17)" style="fill:none;stroke:#231f20;stroke-miterlimit:10"/><path d="M28.15,18.31" transform="translate(-0.31 -0.17)" style="fill:none;stroke:#231f20;stroke-miterlimit:10"/><path d="M29,17.42" transform="translate(-0.31 -0.17)" style="fill:none;stroke:#231f20;stroke-miterlimit:10"/><path d="M34.18,19.41" transform="translate(-0.31 -0.17)" style="fill:none;stroke:#231f20;stroke-miterlimit:10"/><path d="M34.14,20.15" transform="translate(-0.31 -0.17)" style="fill:none;stroke:#231f20;stroke-miterlimit:10"/><path d="M24.2,26.16" transform="translate(-0.31 -0.17)" style="fill:none;stroke:#231f20;stroke-miterlimit:10"/><path d="M35.08,21.42" transform="translate(-0.31 -0.17)" style="fill:none;stroke:#231f20;stroke-miterlimit:10"/></svg>